<svg xmlns="http://www.w3.org/2000/svg" width="142" height="160" fill="none">
    <g clip-path="url(#a)">
      <path stroke="#707A95" stroke-linecap="round" stroke-linejoin="round" d="M96.749.258c1.032 1.806 2.03 3.557 2.993 5.254.103.18-3.984 5.739-3.984 5.739s6.389-1.518 6.616-1.12c14.858 26.073 21.774 38.14 25.805 45.174.33.588.661 1.15.975 1.692.929 1.626 1.755 3.06 2.503 4.336"/>
      <path fill="#707A95" d="M71.004 4.98c-2.823-.846-5.873.821-7.896 3.954-2.018-2.312-5.058-2.746-7.886-.753-3.938 2.787-5.971 9.212-4.542 14.363 1.378 4.964 11.633 13.418 12.386 14.043h.026v-.037c.764-.929 11.024-13.552 12.386-19.095 1.487-5.688-.536-11.292-4.474-12.474Zm-7.902 19.421c-2.42.517-4.386-1.43-4.381-4.293.005-2.865 1.966-5.59 4.387-6.085 2.42-.496 4.387 1.434 4.387 4.304s-1.967 5.584-4.393 6.074Z"/>
      <path stroke="#707A95" stroke-linecap="round" stroke-linejoin="round" d="M61.011 7.56c-.516-.582-4.903-2.064-5-2.125-1.776-.816-3.882-.62-5.879.79-3.938 2.78-5.971 9.206-4.542 14.357C46.968 25.547 57.223 34 57.976 34.625l5.058 2.11s6.42-17.273 7.401-21.195c1.192-4.774.888-10.472.888-10.472s-4.753-1.853-5.414-2.064c-2.58-.78-5.388.567-7.39 3.23l2.492 1.327Zm-3.009 14.864c-2.425.49-4.386-1.43-4.386-4.293 0-2.865 1.966-5.59 4.392-6.08 2.425-.49 4.386 1.43 4.381 4.299-.005 2.87-1.95 5.605-4.376 6.09l-.01-.016ZM99.094 74.374c-10.942-5.625-9.843-9.372-8.831-10.399 1.233-1.074 4.041-.516 7.035.593M101.762 66.515c2.322 1.135 4.309 2.28 5.207 2.838 10.704 6.673 13.011 13.62 11.793 19.844 0 0 13.222 27.074 22.053 53.674"/>
      <path stroke="#707A95" stroke-linecap="round" stroke-linejoin="round" d="M108.678 76.392a11.233 11.233 0 0 1-4.568 1.74 9.006 9.006 0 0 1-4.025-.294 9.852 9.852 0 0 1-4.67-3.273M93.249 70.798c-3.876.867-6.085 4.676-5.357 7.974.727 3.297 3.798 6.007 7.385 7.566M87.775 80.025c-1.512 1.6-1.28 4.268-.031 6.1 1.249 1.833 3.293 3.015 5.331 4.01M86.976 85.466c-1.78 1.31-1.93 4.01-.79 5.811 1.14 1.801 3.241 2.849 5.373 3.463"/>
      <path stroke="#707A95" stroke-linecap="round" stroke-linejoin="round" d="M87.349 92.717c-.516.165-1.45.986-.61 2.42 3.412 6.952 20.469 7.226 20.469 7.226s1.44 3.829 3.463 8.918M90.875 54.148a8.69 8.69 0 0 0 4.531.516"/>
      <path fill="#707A95" d="M97.723 59.83c2.338 12.95 3.096 17.032 3.359 18.348a9.1 9.1 0 0 0 4-.552c-.263-1.296-2.147-11.654-3.391-18.518l-3.968.723Z"/>
      <path fill="#707A95" d="M96.36 59.66c.995 5.342 1.341 7.014 1.465 7.567 1.355.043 2.711-.039 4.051-.243-.129-.516-.944-4.81-1.481-7.638l-4.036.315Z"/>
      <path stroke="#707A95" stroke-linecap="round" stroke-linejoin="round" d="M103.7 77.032c-.264-1.295-2.148-11.653-3.391-18.517l-3.97.722c2.339 12.949 3.097 17.031 3.36 18.347"/>
      <path fill="#707A95" d="M79.568 51.016a18.807 18.807 0 0 1 7.778-25.434 18.424 18.424 0 0 1 4.128-1.605 18.802 18.802 0 0 1 14.523 34.238 14.08 14.08 0 0 1-1.032.583 18.802 18.802 0 0 1-25.428-7.782h.03Zm12.928-23.132a14.775 14.775 0 0 0-9.367 21.238 14.79 14.79 0 0 0 19.973 6.115c.268-.144.516-.294.79-.459a14.386 14.386 0 0 0 2.394-1.822 14.794 14.794 0 0 0 2.932-17.697 14.817 14.817 0 0 0-13.135-7.844c-1.21.01-2.415.167-3.587.47Z"/>
      <path stroke="#707A95" stroke-linecap="round" stroke-linejoin="round" d="M78.283 50.324a18.807 18.807 0 0 1 7.777-25.433 18.424 18.424 0 0 1 4.129-1.605 18.805 18.805 0 0 1 17.547 31.926 18.502 18.502 0 0 1-4.067 2.895 18.796 18.796 0 0 1-20.788-2.099 18.802 18.802 0 0 1-4.64-5.684h.042Zm12.902-23.131a14.767 14.767 0 0 0-9.362 21.237v0a14.776 14.776 0 0 0 19.968 6.11c.268-.139.516-.288.789-.453a14.346 14.346 0 0 0 2.395-1.822 14.794 14.794 0 0 0 2.931-17.697 14.808 14.808 0 0 0-13.134-7.845c-1.202.012-2.398.17-3.561.47h-.026ZM112.204 159.737c-6.875-12.174-12.273-47.032-12.712-51.346l8.975-2.452"/>
      <path stroke="#707A95" stroke-linecap="round" stroke-linejoin="round" d="M99.52 108.39c2.58 1.714 6.76 2.679 11.178 2.875 6.312.278 13.104-1.032 16.371-3.917M130.009 114.295c-2.225 4.02-18.791 5.677-24.861 3.478"/>
      <path fill="#707A95" d="M110.907 111.301c-4.454 0-8.836-.991-11.41-2.911l9.237-2.642 2.173 5.553Z"/>
      <path stroke="#707A95" stroke-linecap="round" stroke-linejoin="round" d="M58.746 69.72A306.077 306.077 0 0 1 25.969 8.48M53.714 83.984a70.743 70.743 0 0 1-7.163-13.934"/>
      <path stroke="#707A95" stroke-linecap="round" stroke-linejoin="round" d="M51.037 28.365c-2.3.411-4.63.634-6.967.666-4.645.051-9.92-1.213-11.437-5.187M96.736.258c-7.53 6.88-15.122 13.816-23.85 19.27M116.551 77.724c2.813-6.286 8.092-12.02 15.111-16.412M89.712 98.321c-16.418 13.506-52.642-3.793-50.088-16.907.713-3.66 1.513-8.103 7.262-11.659 12.784-7.906 19.374 7.38 6.853 14.229"/>
      <path stroke="#707A95" stroke-linecap="round" stroke-linejoin="round" d="M25.914 8.314C24.19 3.267 18.007.206 9.946 5.377c-15.922 9.693-7.422 21.95-7.422 21.95 20.448 32.22 29.268 46.04 34.197 53.715.361.578.717 1.125 1.058 1.652 1.342 2.1 2.482 3.876 3.478 5.398M87.723 37.226a1.657 1.657 0 1 0 0-3.313 1.657 1.657 0 0 0 0 3.313ZM92.872 33.34c.248-.113.516-.222.743-.315a13.659 13.659 0 0 1 1.858-.485 10.665 10.665 0 0 1 1.626-.108 1.74 1.74 0 0 0 1.15-.62c.292-.361.43-.822.388-1.285a1.765 1.765 0 0 0-.62-1.15 1.837 1.837 0 0 0-1.285-.387c-2.274.015-4.5.65-6.44 1.837a1.72 1.72 0 0 0-.707 1.14c-.064.446.043.9.299 1.27a1.76 1.76 0 0 0 1.145.707c.398.045.8-.038 1.146-.237.042-.026.522-.29.697-.367ZM75.53 17.501c-1.384 5.522-11.644 18.146-12.387 19.096l-.03.03h-.026c-.76-.624-11.014-9.083-12.387-14.042-1.43-5.161.599-11.577 4.537-14.358 2.828-1.998 5.873-1.549 7.89.743 2.019-3.128 5.063-4.795 7.892-3.948 3.917 1.14 5.945 6.745 4.51 12.479ZM41.34 41.365l24.504 5.811a6.193 6.193 0 0 1 4.599 7.458l-10.906 45.969M104.758 57.4l24.22 5.74M64.625 102.078l10.74-45.287a6.192 6.192 0 0 1 4.129-4.47M118.372 38.171l-3.433-.846-1.001-.243-2.962-.728v-.005l-.929-.227"/>
      <path stroke="#707A95" stroke-linecap="round" stroke-linejoin="round" d="m80.549 29.206-1.12-.268-2.075-.496-1.069-.258-6.93-1.651-2.39-.573"/>
    </g>
    <defs>
      <clipPath id="a">
        <path fill="#fff" d="M0 0h141.075v160H0z"/>
      </clipPath>
    </defs>
  </svg>
  