<svg width="222" height="161" fill="none" xmlns="http://www.w3.org/2000/svg"><path d="M17.305 131.925h13.89m189.985 18.237v7.609H24.19m196.99-7.609l-14.856-11.353m14.856 11.353h-11.112M1 150.162h160.032m-31.403-18.237h9.18M91.463 133.638a241.606 241.606 0 01-6.764-5.337h39.616c10.2 7.087 16.641 10.882 29.59 15.858m-38.77 2.267l38.65-1.579M87.359 31.798c1.505 7.337 2.424 21.486-1.75 27.9m-25.365-3.06c5.737 3.785 10.93 7.408 20.472 6.321 1.576-.18 2.865-.893 3.911-2.001" stroke="#707A95" stroke-miterlimit="10" stroke-linecap="round"/><path d="M47.5 41.786a7.39 7.39 0 013.295-5.286c.233-.154.479-.286.735-.396a34.547 34.547 0 01-.182-11.242c.203-1.344.57-2.812 1.672-3.588 1.49-1.044 3.665-.32 4.818 1.076a6.76 6.76 0 011.07 1.876 34.59 34.59 0 0113.59-11.257c2.52-1.16 5.619-1.964 7.955-.462 1.48.952 2.314 2.676 2.444 4.414a8.159 8.159 0 01-.275 2.66c2.287.82 4.39 2.08 6.192 3.708 1.565 1.416 2.962 3.472 2.383 5.495-.482 1.736-2.462 3.25-4.267 3.403l.023.062a20.835 20.835 0 00-7.427-3.82c-2.708-.76-7.869-.978-10.526.355-2.657 1.334-5.838 3.377-7.247 4.826-1.408 1.45-2.174 2.89-2.844 4.348.468 2.172.313 2.657.67 3.818 1.169 3.8 1.813 8.621.766 9.257-1.416.86-3.882-1.903-5.178-4.203a6.201 6.201 0 00-5.485.394 6.274 6.274 0 01-2.186-5.448l.004.01zM59.217 62.84c-1.353.482-2.094-3.503-2.295-5.556l1.69-.121 1.692-.483.724 3.865c-.04.563-.459 1.811-1.811 2.294z" fill="#707A95"/><path d="M60.18 56.68c-2.335.764-7.005.724-9.662-2.175-2.657-2.899-2.054-5.918-.726-7.247.685-.603 2.755-1.763 5.557-.603m-4.831 2.053c2.415.966 4.106 1.812 5.556 4.59M73.72 42.345s-2.024-1.437-4.062-1.012c-2.037.424-3.318 2.55-3.318 2.55" stroke="#707A95" stroke-miterlimit="10" stroke-linecap="round"/><ellipse cx="70.888" cy="42.139" rx=".91" ry="1.04" transform="rotate(-11.771 70.888 42.139)" fill="#707A95"/><path d="M86.446 39.696s-2.023-1.437-4.061-1.013c-2.038.425-3.319 2.55-3.319 2.55" stroke="#707A95" stroke-miterlimit="10" stroke-linecap="round"/><ellipse cx="83.618" cy="39.489" rx=".91" ry="1.04" transform="rotate(-11.771 83.618 39.489)" fill="#707A95"/><path d="M65.465 39.685l8.418.9 1.13-2.226M83.602 34.976c-2.726.556-3.837 1.444-5.348 3.637-.578 4.235 1.218 8.268 2.89 10.681-.886.849-3.037.845-4.2.875M83.219 59.93c-.342-.295-.524-.52-.494-.648.18-.776.794-.657 1.079-.501 1.516.808 4 1.95 6.09 3.092m-6.675-1.942c-.16.065-.479.293-.472.68.006.386 1.833 1.383 2.558 1.745m-2.086-2.425c1.12.68 1.844 1.217 2.931 1.821M107.347 72.74c.236.189.368.321.369.383.01.604-.354.489-.354.489a1.406 1.406 0 01-.364-.06m.349-.811c-.24.09-.646.378-.349.812m.349-.812c-.347-.277-1.16-.977-1.873-1.447m1.524 2.259c-.385-.104-1.436-.484-2.127-.813m2.483.389l1.463.821m-6.12-4.468l-.725-.483m-1.208 1.812l1.208.567M75.52 55.413c1.556.327 5.303.257 7.838-2.637m-4.08 3.88c.214.218 1.295.531 2.085-.632" stroke="#707A95" stroke-miterlimit="10" stroke-linecap="round"/><path d="M79.746 63.322s-.09 3.334.353 8.213c-2.81 3.575-8.09-4.71-10.377-9.42 1.65.442 5.12 1.11 5.797 1.207.676.096 3.1.04 4.227 0z" fill="#707A95"/><path d="M60.3 56.8c.846 4.59 1.33 7.367 2.296 14.735M80.35 75.4c-.099-.84-.182-3.096-.251-3.865m0 0c-.443-4.879-.353-8.213-.353-8.213-1.127.04-3.55.096-4.227 0-.677-.097-4.147-.765-5.797-1.208 2.288 4.71 7.567 12.996 10.377 9.42z" stroke="#707A95" stroke-miterlimit="10" stroke-linecap="round"/><path d="M94.249 62.694c2.741-2.6 4.934-.976 4.038 1.84m-4.038-1.84c.408-4.238-2.249-3.602-4.814-1.615-.111.086-.243.22-.39.395m5.204 1.22c-.307 1.17-.92 3.088-1.623 4.373m5.66-2.532c3.308-1.885 4.976-.484 4.334 3.352m-4.333-3.352c-.585 1.528-1.392 4.343-2.237 5.068-.846.725-1.812.725-2.416.363-.604-.363-1.722-1.33-1.008-2.9m9.994.821c3.502-.403 2.938 3.169 2.938 3.169m-2.938-3.169c-.701 1.136-1.86 3.169-2.705 3.77-.846.6-1.628.845-2.658 0-1.029-.846 0-3.77.608-5.436m7.693 4.835s-3.243 9.8-6.94 10.707c-2.16.53 6.998 19.395 12.892 31.683.764 1.288 2.173 4.058 1.69 4.831-.604.966.242 5.435-4.952 4.952-4.154-.387-10.346-6.683-12.923-9.783l-7.54-34.309c-1.181-.969-1.915-2.172-2.318-3.495-.481-1.208.683-3.986 1.287-6.039.603-2.053-3.986-7.85 0-7.73 1.157.035 2.028.65 2.714 1.557m16.09 7.626c-.521 1.206-1.719 3.403-2.938 3.62-1.22.217-1.869-.392-1.739-1.087.129-.696 2.057-3.986 2.057-4.59m-12.927-7.126c-.058.197-.233.726-.543 1.557m3.158 3.637c-.335.612-.69 1.08-1.04 1.256m-.726 7.681c1.018-.964 2.796-3.303 1.766-4.948-.371-.594-.686-1.6-1.04-2.733m-2.118-4.893c.995 1.314 1.6 3.239 2.117 4.893" stroke="#707A95" stroke-miterlimit="10" stroke-linecap="round" stroke-linejoin="round"/><path d="M81.921 74.434s-.604 10.266-8.696 10.024c-8.092-.241-10.629-12.923-10.629-12.923L38.2 93.155m43.722-18.721l3.261.966m-3.261-.966l-1.69-.483m-20.533-3.986c.765 3.422 3.72 12.464 7.005 14.493M101.004 80.956c5.556 10.71 17.513 29.712 19.445 36.838 1.933 7.126-2.536 10.387-2.536 10.387" stroke="#707A95" stroke-miterlimit="10" stroke-linecap="round"/><path d="M94.968 112.237c-1.329-.362-3.503-.242-2.536 3.623 1.207 4.831 9.299 12.199 11.353 12.44h12.682l.724-.362c.121-.121.532-.072.242-3.744-.29-3.672-4.308-9.622-5.919-10.749l1.088 1.691.724 2.777-.241 1.45-1.087 3.019-1.57.967-2.174.241-3.986-1.57-4.831-3.865-3.986-3.865-.483-2.053z" fill="#707A95"/><path d="M94.968 112.237l.487-.115-.069-.289-.286-.079-.132.483zm8.817 16.063l-.059.497.029.003h.03v-.5zm7.729-14.855l.287-.41a.5.5 0 00-.707.68l.42-.27zm5.677 14.493l.224.447.072-.036.058-.057-.354-.354zm-21.74-13.648l-.487.115.034.142.105.102.348-.359zm3.986 3.865l-.348.359.017.017.018.014.313-.39zm4.831 3.865l-.312.39.058.048.071.027.183-.465zm3.986 1.57l-.184.465.116.046.123-.014-.055-.497zm2.174-.241l.055.496.111-.012.096-.059-.262-.425zm1.57-.967l.262.426.149-.092.059-.164-.47-.17zm1.087-3.019l.47.169.015-.042.008-.045-.493-.082zm.241-1.45l.493.083.018-.106-.027-.103-.484.126zm-.724-2.777l.483-.127-.02-.077-.043-.067-.42.271zm3.865 13.164v.5h.118l.105-.052-.223-.448zM95.1 111.754c-.697-.189-1.785-.308-2.572.318-.832.661-1.076 1.931-.582 3.909l.97-.242c-.471-1.887-.111-2.61.234-2.884.391-.311 1.054-.308 1.686-.136l.264-.965zm-3.153 4.227c.323 1.294 1.094 2.719 2.07 4.114.98 1.401 2.187 2.804 3.417 4.057 1.23 1.252 2.49 2.364 3.58 3.182.545.409 1.053.749 1.5.998.432.24.854.423 1.212.465l.117-.993c-.155-.018-.435-.119-.843-.346-.394-.22-.864-.532-1.386-.924-1.042-.782-2.265-1.86-3.466-3.083-1.2-1.223-2.37-2.583-3.312-3.929-.946-1.353-1.639-2.661-1.92-3.783l-.97.242zm19.281-2.127c.338.237.854.771 1.457 1.538a26.357 26.357 0 011.854 2.729c1.235 2.074 2.26 4.397 2.395 6.112l.997-.078c-.154-1.957-1.283-4.445-2.533-6.546a27.133 27.133 0 00-1.927-2.834c-.613-.78-1.203-1.413-1.67-1.74l-.573.819zm5.706 10.379c.145 1.833.109 2.683.04 3.078-.035.193-.069.229-.057.213l.013-.016.01-.008-.023.016c-.014.011-.046.035-.079.069l.707.707-.028.025.013-.01.027-.02a.909.909 0 00.168-.174c.114-.156.186-.36.233-.628.094-.53.118-1.491-.027-3.33l-.997.078zm-21.831-9.584l3.986 3.865.696-.718-3.986-3.865-.696.718zm4.021 3.896l4.832 3.865.624-.78-4.83-3.865-.626.78zm4.961 3.94l3.985 1.57.367-.93-3.986-1.57-.366.93zm4.224 1.602l2.174-.242-.111-.993-2.174.241.111.994zm2.381-.313l1.57-.966-.524-.852-1.57.967.524.851zm1.778-1.222l1.087-3.02-.941-.339-1.087 3.02.941.339zm1.11-3.107l.241-1.449-.986-.165-.241 1.45.986.164zm.232-1.658l-.725-2.778-.967.253.724 2.778.968-.253zm-.788-2.922l-1.087-1.691-.841.541 1.087 1.691.841-.541zm-18.54-2.514l.482 2.054.974-.229-.483-2.054-.974.229zm9.303 16.449h12.682v-1h-12.682v1zm12.905-.052l.725-.363-.447-.894-.725.362.447.895z" fill="#707A95"/><path d="M87.42 139.105c.51 1.886 2.435 5.505 6.062 4.894 4.534-.763 5.748-2.853 10.063-1.559 4.315 1.293 6.265 4.045 6.946 4.386.682.342 1.364.683 1.867.264.129-.107.23-.247.304-.414m-4.448-6.134c2.537 1.41 4.051 3.16 4.392 4.184.253.761.271 1.466.056 1.95m0 0c.368.429 1.268 1.128 1.921.493.817-.793.711-1.671.51-2.526-.112-.476-.476-1.762-1.399-3.181m-10.587-4.735c1.179-.244 4.262-.299 7.154 1.429a10.491 10.491 0 013.433 3.306m0 0c.353.151 1.104.302 1.284-.302.224-.754-.2-2.56-1.759-4.501-1.558-1.94-6.236-4.352-10.657-4.819-4.422-.466-10.102.968-11.97 2.409" stroke="#707A95" stroke-miterlimit="10" stroke-linecap="round"/><path d="M46.415 136.03c19.31 4.079 24 4.649 41.787 4.697m-30.91-17.614l33.563 10.975M58.855 122.624c-1.329-1.45-2.778-2.537-3.797-3.5m4.153-12.685c0 4.469-2.7 11.739-3.255 13.474" stroke="#707A95" stroke-miterlimit="10" stroke-linecap="round"/><path d="M41.824 138.325c0 2.444 6.683-.725 7.006-1.57l-2.779-.847c-1.955.61-4.227.785-4.227 2.417zM59.337 123.711l-.483-1.087c-.248-.145-.745-.058-1.484.362l1.967.725z" fill="#707A95"/><path d="M46.051 135.908c.795-.248 1.537-.567 2.054-1.086 3.192-3.201 4.665-7.882 6.522-9.662 1.127-1.08 2.044-1.776 2.743-2.174M46.05 135.908c-1.955.61-4.227.785-4.227 2.417 0 2.444 6.683-.725 7.006-1.57l-2.779-.847zm11.319-12.922c.74-.42 1.236-.507 1.484-.362l.483 1.087-1.967-.725z" stroke="#707A95" stroke-miterlimit="10" stroke-linecap="round"/><path d="M41.945 138.808c-2.979-1.651-9.324-5.556-10.87-7.005-1.546-1.45 2.376-20.815 5.435-32.973M92.309 113.445v-9.058" stroke="#707A95" stroke-miterlimit="10" stroke-linecap="round"/><path d="M119.136 41.483a20.697 20.697 0 01-.803-5.728c0-11.423 9.255-20.684 20.671-20.684 4.077 0 7.879 1.182 11.082 3.221C152.746 9.945 160.559 3.9 169.783 3.9c10.755 0 19.592 8.22 20.579 18.723a20.857 20.857 0 01.243-.002c11.416 0 20.671 9.26 20.671 20.683 0 11.424-9.255 20.684-20.671 20.684-2.359 0-4.626-.395-6.737-1.124-2.151 9.127-10.343 15.92-20.12 15.92-6.417 0-12.151-2.927-15.942-7.518a20.59 20.59 0 01-13.932 5.404c-11.416 0-20.671-9.26-20.671-20.684 0-5.65 2.264-10.77 5.933-14.502z" stroke="#707A95" stroke-miterlimit="10" stroke-linecap="round" stroke-linejoin="round"/><ellipse cx="113.082" cy="30.349" rx="3.019" ry="3.503" stroke="#707A95" stroke-miterlimit="10" stroke-linecap="round" stroke-linejoin="round"/><ellipse cx="104.748" cy="27.934" rx="2.416" ry="2.778" stroke="#707A95" stroke-miterlimit="10" stroke-linecap="round" stroke-linejoin="round"/><circle cx="97.14" cy="29.866" r="1.812" stroke="#707A95" stroke-miterlimit="10" stroke-linecap="round" stroke-linejoin="round"/><path d="M146.812 58.17h3.672m11.409-31.927h20.456v2.114m-20.456-2.114v4.805m0-4.805h-2.341m2.341 31.926h20.456v-5.053m-20.456 5.053h-11.409m11.409 0V47.011m-11.409 11.158V47.011h3.482m7.927 0h-3.851m3.851 0v-1.86m0-5.734h20.456m-20.456 0v1.923m0-1.923v-4.185m20.456 4.185v-2.153m0 2.153v4.943m-36.848 16.909l-4.721-3.1h-4.327V26.243h2.567m9.058 0h2.416" stroke="#707A95" stroke-miterlimit="10" stroke-linecap="round"/><path stroke="#707A95" stroke-miterlimit="10" stroke-linecap="round" d="M182.953 28.356v8.756h-1.208v-8.756zM139.172 25.639h8.756v1.208h-8.756zM150.645 25.639h8.756v1.208h-8.756zM182.953 44.36v8.755h-1.208V44.36z"/><path d="M160.773 138.684l45.196-1.123h6.217c.258-3.777.198-5.977-1.184-10.414h-50.229c.485 1.234.633 3.094.607 5.018a42.126 42.126 0 01-.232 3.744 43.727 43.727 0 01-.375 2.775zM159.786 119.156c.746 1.169.944 1.968 0 4.238H212.186c.612-1.481.635-2.401 0-4.238h-52.4z" fill="#707A95"/><path d="M160.773 127.147h3.454l-4.483-3.782-2.992-2.03h-3.972l7.993 5.812zM159.786 119.156h5.329l-7.895-5.449h-5.822c3.371 2.021 5.216 3.198 8.388 5.449zM157.22 138.772l-7.302-4.602c.136.561.233 1.043.295 1.47.187 1.292.055 2.084-.295 3.044l3.272 2.21 4.03 2.721c.245-.582.421-1.074.477-1.667.073-.76-.051-1.685-.477-3.176z" fill="#707A95"/><path d="M162.056 143.615h-4.836m4.836 0h43.913m-43.913 0c.656 1.595 1.043 2.822 1.19 4.131m-.105 3.619l46.775 1.574c.41-4.16.193-6.196-.888-9.324h-3.059m-42.828 7.75l-9.374-5.797c.408-2.279.254-3.287-.577-4.674m9.951 10.471c.079-.611.132-1.167.157-1.687m-6.078-10.906l3.553-.088m-3.553.088l-7.302-4.602m7.302 4.602c.426 1.491.55 2.416.477 3.176m-.477 1.667l-4.03-2.721m4.03 2.721c.245-.582.421-1.074.477-1.667m48.272-4.387c.767 2.543.768 3.868 0 6.054m0-6.054l-45.196 1.123m45.196-1.123h6.217c.258-3.777.198-5.977-1.184-10.414m-50.229 11.537l-6.729-4.514m6.729 4.514c.124-.723.262-1.691.375-2.775m-.375-8.762h3.454m-3.454 0l-7.993-5.812m7.993 5.812c.485 1.234.633 3.094.607 5.018m49.622-5.018h-46.775m46.775 0h3.947c.578-1.285.572-2.111 0-3.753h-2.763m-47.959 3.753l-4.483-3.782m4.483 3.782c.211-.574.352-1.05.407-1.504m-.407-2.249h-4.441m4.441 0h47.959m-47.959 0c.374.891.493 1.544.407 2.249m-4.848-6.487c.746 1.169.944 1.968 0 4.238m0-4.238h5.329m-5.329 0c-3.172-2.251-5.017-3.428-8.388-5.449m8.388 9.687l-.042-.029m52.442.029c.612-1.481.635-2.401 0-4.238h-3.158m-43.913 0h43.913m-43.913 0l-7.895-5.449m7.895 5.449c.242-1.755.394-3.118.42-4.383m-.42-4.215h43.913m-43.913 0l-7.895-4.964m7.895 4.964c.325 1.549.449 2.823.42 4.215m43.493-4.215c1.232 2.989 1.169 4.894 0 8.598m0-8.598l-8.289-4.964H157.22m-7.302 28.576h4.126m-4.126 0c.136.561.233 1.043.295 1.47m2.567-14.305h3.972m-3.972 0c.183.737.34 1.42.472 2.059m3.5-2.059l-5.354-3.632m5.354 3.632l2.992 2.03m-8.346-5.662l8.346 5.662m-8.346-5.662c.491-.712.674-1.315.579-2.085m-.579-1.911h5.822m-5.822 0c.318.775.514 1.383.579 1.911m5.243-1.911c.285-.423.52-.826.705-1.229m-.705-6.884c.386.965.674 1.798.871 2.536m-4.047 26.04l-1.264-.847c.471-1.355.795-2.547.939-3.815m-.529 11.386l-3.272-2.21c.35-.96.482-1.752.295-3.044m7.878-27.51l5.717 3.503m-5.717-3.503c.49 1.838.41 3.092-.166 4.348m7.61 2.295l-5.472-3.14m-2.138.845l4.916 3.14m-10.864 0l4.775 3.141m-1.278.397l3.261 2.179m4.106 2.979l1.793 1.329m-11.382-2.249l5.966 4.665m-5.966-4.665c.532 2.566.661 4.409.467 6.114m7.661 2.657l-5.906-4.469m5.906 4.469a42.126 42.126 0 01-.232 3.744m-7.429-6.401l5.016 3.503m-2.416-.363l4.829 3.261m-10.935-.269l4.778 3.132m-2.657-.088l5.363 3.264m0 3.986l5.601 3.744m0 0a12.08 12.08 0 00-.052-1.932m-2.473-1.812l2.473 1.812" stroke="#707A95" stroke-miterlimit="10" stroke-linecap="round" stroke-linejoin="round"/><path d="M142.791 116.585c-1.063 0-3.905.644-5.193.966 2.419 1.02 4.396 1.685 6.28 1.975l-1.087-2.941zM151.97 116.947l-1.811-.362-.52 2.657a27.36 27.36 0 002.815-.845l-.967-.604.483-.846z" fill="#707A95"/><path d="M137.598 117.551c-1.007 4.107-1.74 13.262 3.381 17.03 1.933 2.295 8.415 2.375 9.421 1.208m-12.802-18.238c1.288-.322 4.13-.966 5.193-.966l1.087 2.941m-6.28-1.975c2.419 1.02 4.396 1.685 6.28 1.975m0 0c1.895.292 3.697.204 5.761-.284m0 0a27.36 27.36 0 002.815-.845l-.967-.604.483-.846-1.811-.362-.52 2.657zm-9.988-12.682l.242.363m.362 1.932l.483.121m1.812.362v.483m1.932 1.57l.363.484m2.777-1.812v.725m0 3.261l-.483-.846m1.933-.725l.567-.603m-6.002 2.777h.604m1.691.846l.483.604m2.294.483l.484-.121m-3.986 1.329l-.483-.121m2.898.966l.725.242m.483-11.716l-.241-.604m2.536-1.328l.845-.242m-2.174-1.691l.242-.604m2.416-1.449l.362-.483m-2.536-.483v-.483m-3.865-.966h-.846m-.604-3.382v-.725m-2.657.966l-.241-.724m2.174 2.294l-.604.121m-.363-4.227v-.483m4.469 3.985l-.362.604m.966 1.57l.242.604m0-5.918l-.242-.604m2.295-2.778l.362-.362m-2.174-.845v-.484m-1.252 20.424a4.807 4.807 0 00-1.126 0c-1.197.13-2.058.562-2.657 1.189m3.783-1.189c1.262.161 2.037.895 2.473 1.932m-2.473-1.932c-.199-2.205-.132-5.638.873-7.851m1.6 9.783c.957 2.277.282 6.012-.458 8.334m.458-8.334c2.464-3.543 6.305-10.87 1.957-11.836-.77-.171-1.416-.087-1.957.187m-1.6 1.866c-3.122-.724-8.979-3.164-7.433-7.126 1.319-3.382 4.378-.675 6.56 1.45m.873 5.676c.384-.845.904-1.513 1.6-1.866m0 0c-.338-.912-.7-1.867-1.304-2.603m-4.952 13.509c-1.449-2.329-4.589-6.455-5.556-4.329-.966 2.125 2.724 4.75 4.69 5.797m.866-1.468a3.942 3.942 0 00-.866 1.468m.866 7.609c-.831-1.99-1.662-5.282-.866-7.609m4.649-16.184c-1.284-2.048 0-8.66 2.473-8.334 3.648.481 1.891 6.515-1.304 9.541m-1.169-1.207c1.169 1.137 1.169 1.207 1.169 1.207M157.648 3.435c9.568-3.728 15.079-3.601 25.364 3.382M182.773 73.467c2.174-1.57 4.832-5.072 5.798-7.73 5.628 1.26 8.831 1.046 14.614-1.449" stroke="#707A95" stroke-miterlimit="10" stroke-linecap="round" stroke-linejoin="round"/><path d="M40.44 62.352l-4.523.841c-4.45.83-8.757-2.21-9.616-6.807l-.866-4.659-.975.184.87 4.654c.852 4.574-2.056 8.982-6.522 9.812l-4.523.841.187 1.003 4.522-.841c4.453-.827 8.76 2.21 9.616 6.807l.87 4.658.97-.183-.865-4.654c-.855-4.574 2.055-8.982 6.518-9.812l4.523-.841-.091-.503-.095-.5zM41.736 43.94l-2.115.398c-2.08.392-4.096-1.043-4.497-3.214l-.405-2.2-.456.087.406 2.198c.399 2.159-.96 4.24-3.05 4.632l-2.115.397.087.473 2.115-.397c2.083-.39 4.098 1.043 4.497 3.214l.407 2.2.455-.087-.405-2.197c-.4-2.16.96-4.24 3.048-4.633l2.115-.397-.042-.237-.045-.236zM208.667 94.055l-3.002-2.342c-2.955-2.301-3.434-6.639-1.055-9.693l2.412-3.092-.648-.504-2.408 3.092c-2.367 3.037-6.694 3.653-9.659 1.34l-3.002-2.342-.519.666 3.002 2.342c2.955 2.306 3.436 6.641 1.055 9.693l-2.41 3.094.646.502 2.41-3.09c2.366-3.039 6.694-3.653 9.657-1.342l3.002 2.342.261-.333.258-.333z" stroke="#707A95" stroke-miterlimit="10" stroke-linecap="round"/></svg>